<svg width="21" height="22" viewBox="0 0 21 22" fill="none" xmlns="http://www.w3.org/2000/svg">
<path d="M10.4414 19.692C11.2617 19.692 12.0508 19.5865 12.8086 19.3755C13.5664 19.1646 14.2813 18.8638 14.9531 18.4732C15.625 18.0826 16.2266 17.6177 16.7578 17.0787C17.2891 16.5396 17.7539 15.9341 18.1523 15.2623C18.5508 14.5904 18.8516 13.8795 19.0547 13.1295C19.2578 12.3795 19.3672 11.5865 19.3828 10.7505C19.3828 9.93024 19.2773 9.14117 19.0664 8.38336C18.8555 7.62555 18.5547 6.91071 18.1641 6.23883C17.7734 5.56696 17.3086 4.96539 16.7695 4.43414C16.2305 3.90289 15.625 3.43805 14.9531 3.03961C14.2813 2.64117 13.5703 2.34039 12.8203 2.13727C12.0703 1.93414 11.2773 1.82477 10.4414 1.80914C9.6211 1.80914 8.83203 1.91461 8.07422 2.12555C7.31641 2.33649 6.60156 2.63727 5.92969 3.02789C5.25781 3.41852 4.65625 3.88336 4.125 4.42242C3.59375 4.96149 3.12891 5.56695 2.73047 6.23883C2.33203 6.9107 2.03125 7.62164 1.82813 8.37164C1.625 9.12164 1.51563 9.91461 1.5 10.7505C1.5 11.5709 1.60547 12.3599 1.81641 13.1177C2.02734 13.8755 2.32813 14.5865 2.71875 15.2505C3.10938 15.9146 3.57813 16.5201 4.125 17.067C4.67188 17.6138 5.27344 18.0787 5.92969 18.4615C6.58594 18.8443 7.29688 19.1451 8.0625 19.3638C8.82813 19.5826 9.62109 19.692 10.4414 19.692ZM10.4414 21.192C9.48047 21.192 8.55859 21.067 7.67578 20.817C6.79297 20.567 5.96094 20.2154 5.17969 19.7623C4.39844 19.3091 3.69531 18.7662 3.07031 18.1334C2.44531 17.5005 1.89844 16.7935 1.42969 16.0123C0.960938 15.231 0.609376 14.4029 0.375001 13.5279C0.140626 12.6529 0.0156258 11.7271 9.12817e-07 10.7505C9.96825e-07 9.78961 0.125001 8.86774 0.375001 7.98492C0.625001 7.10211 0.976564 6.27008 1.42969 5.48883C1.88281 4.70758 2.42578 4.00445 3.0586 3.37945C3.69141 2.75445 4.39844 2.20758 5.17969 1.73883C5.96094 1.27008 6.78906 0.918517 7.66406 0.684142C8.53906 0.449767 9.46485 0.324767 10.4414 0.309142C11.4023 0.309142 12.3242 0.434142 13.207 0.684142C14.0898 0.934142 14.9219 1.28571 15.7031 1.73883C16.4844 2.19196 17.1875 2.73492 17.8125 3.36774C18.4375 4.00055 18.9844 4.70758 19.4531 5.48883C19.9219 6.27008 20.2734 7.09821 20.5078 7.97321C20.7422 8.84821 20.8672 9.77399 20.8828 10.7505C20.8828 11.7115 20.7578 12.6334 20.5078 13.5162C20.2578 14.399 19.9063 15.231 19.4531 16.0123C19 16.7935 18.457 17.4966 17.8242 18.1216C17.1914 18.7466 16.4844 19.2935 15.7031 19.7623C14.9219 20.231 14.0938 20.5826 13.2188 20.817C12.3438 21.0513 11.418 21.1763 10.4414 21.192ZM11.4727 5.28961L12.5273 6.3443L8.19141 10.692L12.5273 15.0396L11.4727 16.0943L6.07031 10.692L11.4727 5.28961Z" fill="#FFA63E"/>
</svg>
