<svg width="26" height="22" viewBox="0 0 26 22" fill="none" xmlns="http://www.w3.org/2000/svg">
<path d="M22.5429 20.7089H2.86645C1.95269 20.7089 1.28259 19.9797 1.28259 19.1291V5.57975C1.28259 4.72911 2.01361 4 2.86645 4H12.7047H22.5429C23.4566 4 24.1267 4.72911 24.1267 5.57975V19.0684C24.1267 19.9797 23.3957 20.7089 22.5429 20.7089Z" stroke="#FFAE33" stroke-width="2" stroke-miterlimit="10" stroke-linecap="round" stroke-linejoin="round"/>
<path d="M12.3112 15C13.9724 15 15.319 13.6569 15.319 12C15.319 10.3431 13.9724 9 12.3112 9C10.65 9 9.30341 10.3431 9.30341 12C9.30341 13.6569 10.65 15 12.3112 15Z" stroke="#FFAE33" stroke-width="2" stroke-miterlimit="10"/>
<rect x="15.319" y="1" width="4.01042" height="3" stroke="#FFAE33" stroke-width="2" stroke-linejoin="round"/>
</svg>
